<svg width="130" height="56" viewBox="0 0 130 56" fill="none" xmlns="http://www.w3.org/2000/svg">
<g id="Logo">
<path id="Vector" d="M98.7496 22.7036C95.0564 22.3775 91.4658 21.3162 88.1888 19.5821C95.4288 16.296 97.423 10.0445 92.7235 8.5878C91.4286 8.20496 90.0385 8.30667 88.8131 8.87393C87.4431 3.34208 79.2841 4.84209 80.2812 10.9115C80.9442 14.0658 82.7745 16.8531 85.4055 18.7151C82.6686 19.4147 79.8256 19.5999 77.021 19.2613C75.1188 19.065 73.24 18.6846 71.4112 18.1255C86.7668 7.91149 76.7609 -4.22737 69.677 3.87965C69.4169 3.61953 69.0441 3.28138 68.5238 2.83918C65.8793 0.506786 62.1596 -0.733112 58.7954 1.01835C51.8589 4.79007 55.3272 14.7786 66.4689 19.2873C62.6561 20.8676 58.5701 21.6836 54.4428 21.6891C44.7577 21.8365 34.1275 18.4463 28.0581 15.0561V22.4001C39.9629 24.8625 57.5382 25.7036 68.1337 20.0677L68.3418 19.955C70.9204 20.781 73.5907 21.2876 76.2927 21.4637C80.0316 21.7489 83.788 21.2224 87.3044 19.9203C87.7466 20.1804 88.1715 20.4232 88.7004 20.6486C92.3029 22.2188 96.1739 23.0813 100.102 23.1891V22.8423L98.7496 22.7036ZM58.9862 4.634C60.5469 2.33628 64.5701 1.72067 69.0961 5.58776C70.7088 6.96639 69.3042 6.02996 71.5672 3.49815C71.9394 2.9916 72.45 2.60342 73.0376 2.38036C73.6253 2.15731 74.2649 2.10888 74.8794 2.24091C81.3824 3.87965 78.5991 12.3855 69.8244 17.5792C61.492 14.5879 56.2116 8.38837 58.9862 4.634ZM86.4113 18.3943C83.1165 15.9752 81.6772 13.0445 81.3824 10.7728C80.8101 6.43748 86.1339 5.25828 87.2784 8.94329C87.4778 9.70687 87.5625 10.4959 87.5298 11.2844C88.9778 10.4173 90.5039 9.05601 92.3594 9.67162C96.1744 10.8595 93.3391 16.1572 86.4113 18.3943Z" fill="url(#paint0_linear_498_5540)"/>
<path id="Vector_2" d="M4.51739 51.802C4.70848 52.0501 4.8094 52.3559 4.80352 52.669C4.81404 52.8864 4.76948 53.1029 4.67399 53.2984C4.57849 53.4939 4.43515 53.6622 4.25727 53.7875C3.77788 54.0777 3.22106 54.2139 2.66188 54.1777H0V48.6199H2.50581C3.02493 48.5899 3.5404 48.7233 3.97981 49.0014C4.15036 49.1205 4.2882 49.2806 4.38063 49.467C4.47306 49.6533 4.51711 49.86 4.50872 50.0678C4.51519 50.3343 4.4428 50.5967 4.30062 50.8222C4.17146 51.0352 3.98111 51.2045 3.75437 51.3077C4.057 51.3821 4.32578 51.5562 4.51739 51.802ZM0.797696 49.2702V51.0563H2.42777C2.7617 51.0659 3.09086 50.9753 3.37287 50.7962C3.48183 50.7233 3.57019 50.6236 3.62942 50.5067C3.68865 50.3897 3.71675 50.2595 3.71102 50.1285C3.71849 49.9973 3.69115 49.8665 3.63177 49.7492C3.57238 49.632 3.48307 49.5325 3.37287 49.4609C3.08872 49.2899 2.75853 49.2111 2.42777 49.2355L0.797696 49.2702ZM3.65033 53.3367C3.76622 53.2619 3.85967 53.1571 3.92074 53.0334C3.98181 52.9097 4.00822 52.7718 3.99715 52.6343C3.99715 52.0101 3.53761 51.6979 2.6272 51.6979H0.797696V53.5621H2.6272C2.9827 53.5853 3.33751 53.5072 3.65033 53.3367Z" fill="#BA0061"/>
<path id="Vector_3" d="M9.84983 49.9727V54.2039H9.1215V53.571C8.96732 53.7894 8.75786 53.963 8.51456 54.0739C8.24415 54.2027 7.94689 54.2651 7.6475 54.2559C7.39995 54.2809 7.14996 54.2501 6.91591 54.1657C6.68185 54.0813 6.46969 53.9455 6.29501 53.7684C6.12034 53.5912 5.98759 53.3771 5.90654 53.1419C5.8255 52.9067 5.7982 52.6563 5.82667 52.4091V49.9727H6.58968V52.3224C6.5677 52.6577 6.67297 52.989 6.88448 53.2501C6.99712 53.3633 7.133 53.4506 7.28272 53.506C7.43243 53.5613 7.5924 53.5835 7.75154 53.571C7.9279 53.5803 8.10423 53.5519 8.26872 53.4876C8.4332 53.4233 8.58206 53.3246 8.70531 53.1981C8.95549 52.9147 9.0833 52.5437 9.06081 52.1663V49.9727H9.84983Z" fill="#BA0061"/>
<path id="Vector_4" d="M11.3412 49.0622C11.2939 49.0178 11.2564 48.964 11.231 48.9043C11.2057 48.8446 11.193 48.7803 11.1938 48.7154C11.1933 48.6493 11.2061 48.5838 11.2314 48.5227C11.2568 48.4616 11.2941 48.4063 11.3412 48.3599C11.3892 48.3102 11.4474 48.2713 11.5117 48.2459C11.576 48.2205 11.6449 48.2091 11.714 48.2125C11.7809 48.2097 11.8477 48.2206 11.9103 48.2445C11.9729 48.2683 12.03 48.3046 12.0782 48.3512C12.1288 48.3934 12.1692 48.4465 12.1963 48.5066C12.2233 48.5667 12.2363 48.6322 12.2342 48.6981C12.232 48.8345 12.1761 48.9646 12.0788 49.0603C11.9815 49.156 11.8505 49.2096 11.714 49.2096C11.6452 49.2109 11.5768 49.1986 11.5128 49.1733C11.4488 49.148 11.3905 49.1102 11.3412 49.0622ZM11.3412 50.016H12.1042V54.2472H11.3412V50.016Z" fill="#BA0061"/>
<path id="Vector_5" d="M13.5522 48.2817H14.3239V54.2038H13.5522V48.2817Z" fill="#BA0061"/>
<path id="Vector_6" d="M19.769 48.2817V54.2038H19.0407V53.5361C18.8715 53.7661 18.6481 53.9508 18.3904 54.0737C18.1186 54.1984 17.8223 54.2606 17.5233 54.2558C17.1382 54.262 16.7583 54.1662 16.4221 53.9783C16.1 53.8063 15.8349 53.5442 15.6591 53.224C15.471 52.8753 15.3754 52.4843 15.3817 52.0881C15.3745 51.6974 15.4702 51.3117 15.6591 50.9696C15.8343 50.6469 16.0994 50.3818 16.4221 50.2066C16.7609 50.0172 17.144 49.9214 17.532 49.9292C17.8303 49.9219 18.1265 49.9812 18.399 50.1026C18.6531 50.2115 18.8742 50.3848 19.0407 50.6055V48.2817H19.769ZM18.321 53.3974C18.5368 53.2714 18.7138 53.0884 18.8326 52.8685C18.9531 52.6276 19.0159 52.3619 19.0159 52.0925C19.0159 51.8231 18.9531 51.5574 18.8326 51.3165C18.7161 51.0949 18.5386 50.9113 18.321 50.7875C18.0967 50.6684 17.8466 50.606 17.5927 50.606C17.3387 50.606 17.0886 50.6684 16.8643 50.7875C16.6468 50.9113 16.4692 51.0949 16.3528 51.3165C16.2274 51.5559 16.162 51.8222 16.162 52.0925C16.162 52.3628 16.2274 52.629 16.3528 52.8685C16.4715 53.0884 16.6485 53.2714 16.8643 53.3974C17.0884 53.5173 17.3386 53.5801 17.5927 53.5801C17.8468 53.5801 18.097 53.5173 18.321 53.3974Z" fill="#BA0061"/>
<path id="Vector_7" d="M21.2343 49.0622C21.187 49.0178 21.1495 48.964 21.1242 48.9043C21.0988 48.8446 21.0861 48.7803 21.0869 48.7154C21.0864 48.6493 21.0992 48.5838 21.1246 48.5227C21.1499 48.4616 21.1872 48.4063 21.2343 48.3599C21.2824 48.3102 21.3405 48.2713 21.4048 48.2459C21.4691 48.2205 21.5381 48.2091 21.6071 48.2125C21.7449 48.2075 21.879 48.2574 21.98 48.3512C22.0276 48.3953 22.0654 48.4491 22.0908 48.5088C22.1163 48.5686 22.1287 48.6331 22.1274 48.6981C22.1292 48.8327 22.0795 48.9629 21.9886 49.0622C21.8885 49.1584 21.7546 49.2113 21.6158 49.2096C21.5455 49.2121 21.4755 49.2003 21.41 49.175C21.3444 49.1496 21.2846 49.1113 21.2343 49.0622ZM21.2343 50.016H21.9886V54.2472H21.2256L21.2343 50.016Z" fill="#BA0061"/>
<path id="Vector_8" d="M26.9916 50.4061C27.1579 50.5911 27.2851 50.8078 27.3655 51.0433C27.446 51.2787 27.4781 51.5279 27.4598 51.776V54.2038H26.6968V51.8627C26.7242 51.5268 26.6183 51.1935 26.402 50.935C26.2883 50.8239 26.152 50.7385 26.0024 50.6847C25.8528 50.6308 25.6934 50.6097 25.5349 50.6228C25.3555 50.614 25.1761 50.6418 25.0077 50.7044C24.8392 50.7669 24.6853 50.8631 24.5552 50.987C24.3036 51.2731 24.1758 51.6473 24.1997 52.0275V54.2038H23.4366V49.9725H24.165V50.6142C24.3257 50.395 24.5409 50.2217 24.7893 50.1113C25.0643 49.9977 25.3588 49.9388 25.6563 49.9379C25.8993 49.9176 26.1438 49.9489 26.3739 50.0296C26.604 50.1103 26.8145 50.2385 26.9916 50.4061Z" fill="#BA0061"/>
<path id="Vector_9" d="M32.957 49.9726V53.6316C32.9788 53.9287 32.94 54.227 32.8432 54.5087C32.7463 54.7904 32.5933 55.0495 32.3934 55.2703C31.9387 55.6565 31.3494 55.8467 30.7547 55.7992C30.367 55.8023 29.9812 55.7467 29.6101 55.6345C29.2896 55.5502 28.9928 55.3929 28.7431 55.175L29.1073 54.5854C29.3232 54.7623 29.5702 54.8975 29.8356 54.9842C30.1154 55.0773 30.4078 55.127 30.7026 55.1316C30.8986 55.1487 31.096 55.1269 31.2835 55.0673C31.471 55.0078 31.6449 54.9118 31.7951 54.7848C31.924 54.6389 32.022 54.4684 32.0831 54.2836C32.1442 54.0988 32.1672 53.9036 32.1506 53.7096V53.3975C31.9737 53.6142 31.7437 53.7815 31.483 53.883C31.2086 53.9978 30.9133 54.0539 30.6159 54.0478C30.2359 54.0524 29.8606 53.9631 29.5234 53.7877C29.2039 53.6208 28.9367 53.3687 28.7518 53.0593C28.5695 52.735 28.4737 52.3692 28.4737 51.9972C28.4737 51.6251 28.5695 51.2593 28.7518 50.935C28.9367 50.6256 29.2039 50.3735 29.5234 50.2067C29.8735 50.0224 30.2636 49.9271 30.6593 49.9292C30.9567 49.9314 31.251 49.9903 31.5264 50.1026C31.7916 50.217 32.0241 50.3958 32.2027 50.6229V49.9639L32.957 49.9726ZM31.5264 53.1807C31.7397 53.071 31.9172 52.9025 32.0379 52.6952C32.1673 52.4809 32.2334 52.2344 32.2287 51.9842C32.2359 51.7985 32.2033 51.6134 32.133 51.4414C32.0627 51.2694 31.9564 51.1145 31.8212 50.987C31.5376 50.7286 31.1641 50.5916 30.7807 50.6055C30.3918 50.5898 30.0122 50.7267 29.7229 50.987C29.5877 51.1145 29.4813 51.2694 29.411 51.4414C29.3407 51.6134 29.3081 51.7985 29.3153 51.9842C29.3106 52.2344 29.3767 52.4809 29.5061 52.6952C29.6275 52.905 29.8086 53.074 30.0263 53.1807C30.2578 53.3058 30.5177 53.3685 30.7807 53.3628C31.0406 53.3655 31.297 53.3029 31.5264 53.1807Z" fill="#BA0061"/>
<path id="Vector_10" d="M41.4802 48.6199V54.2037H40.6825V51.7153H37.4744V54.2037H36.6767V48.6199H37.4744V51.0216H40.6825V48.6199H41.4802Z" fill="#BA0061"/>
<path id="Vector_11" d="M45.9282 50.3713C46.0947 50.5403 46.2227 50.7431 46.3035 50.9661C46.3843 51.1891 46.416 51.4269 46.3964 51.6632V54.2124H45.6681V53.6575C45.5345 53.8584 45.3444 54.0152 45.1219 54.1083C44.8471 54.2209 44.5516 54.2741 44.2548 54.2644C43.8442 54.2882 43.4386 54.1652 43.1103 53.9176C42.9804 53.8069 42.8761 53.6693 42.8046 53.5144C42.7331 53.3594 42.696 53.1908 42.696 53.0202C42.696 52.8495 42.7331 52.6809 42.8046 52.526C42.8761 52.371 42.9804 52.2335 43.1103 52.1228C43.4896 51.8656 43.9456 51.7462 44.4022 51.7846H45.6161V51.6632C45.6252 51.5243 45.6044 51.3851 45.5551 51.2549C45.5057 51.1248 45.4289 51.0068 45.33 50.9089C45.0879 50.708 44.7761 50.6114 44.4629 50.6401C44.2144 50.6403 43.9678 50.6844 43.7346 50.7702C43.5122 50.8382 43.3058 50.9502 43.1276 51.0996L42.7981 50.4754C43.0312 50.295 43.2958 50.1597 43.5785 50.0765C43.9038 49.9742 44.2433 49.9245 44.5843 49.9291C45.0727 49.896 45.5548 50.0547 45.9282 50.3713ZM45.1652 53.4667C45.3754 53.3375 45.537 53.1424 45.6248 52.9118V52.3222H44.4456C43.7953 52.3222 43.4744 52.539 43.4744 52.9812C43.4709 53.0772 43.4912 53.1726 43.5336 53.2589C43.5759 53.3451 43.639 53.4195 43.7172 53.4754C43.9179 53.6136 44.159 53.6807 44.4022 53.6661C44.6701 53.6715 44.9342 53.6025 45.1652 53.4667Z" fill="#BA0061"/>
<path id="Vector_12" d="M51.1566 50.2067C51.4773 50.3847 51.7417 50.649 51.9196 50.9698C52.1085 51.3118 52.2042 51.6975 52.197 52.0883C52.2033 52.4844 52.1077 52.8755 51.9196 53.2241C51.7415 53.5425 51.477 53.804 51.1566 53.9784C50.8195 54.1641 50.4402 54.2597 50.0554 54.2559C49.7571 54.2631 49.4609 54.2039 49.1883 54.0825C48.9388 53.9623 48.7195 53.7874 48.5467 53.5709V55.7559H47.775V49.9726H48.512V50.6489C48.6758 50.416 48.9009 50.233 49.1623 50.12C49.4341 49.9954 49.7304 49.9332 50.0294 49.9379C50.4222 49.9266 50.8111 50.0193 51.1566 50.2067ZM50.723 53.3975C50.9368 53.2688 51.1131 53.0865 51.2346 52.8686C51.3552 52.6277 51.4179 52.362 51.4179 52.0926C51.4179 51.8232 51.3552 51.5575 51.2346 51.3166C51.1159 51.0967 50.9389 50.9137 50.723 50.7877C50.5002 50.6648 50.2492 50.602 49.9947 50.6056C49.739 50.6008 49.4869 50.6668 49.2664 50.7963C49.0511 50.9193 48.8741 51.0993 48.7548 51.3166C48.6342 51.5575 48.5715 51.8232 48.5715 52.0926C48.5715 52.362 48.6342 52.6277 48.7548 52.8686C48.8735 53.0885 49.0505 53.2715 49.2664 53.3975C49.4904 53.5174 49.7406 53.5802 49.9947 53.5802C50.2488 53.5802 50.499 53.5174 50.723 53.3975Z" fill="#BA0061"/>
<path id="Vector_13" d="M56.6017 50.2067C56.9201 50.3848 57.1817 50.6493 57.3561 50.9698C57.549 51.3102 57.645 51.6971 57.6336 52.0883C57.6438 52.4848 57.548 52.8769 57.3561 53.2241C57.1811 53.5419 56.9195 53.8035 56.6017 53.9784C56.2647 54.1641 55.8854 54.2597 55.5006 54.2559C55.2025 54.2609 54.9068 54.2018 54.6335 54.0825C54.3854 53.9601 54.1665 53.7856 53.9919 53.5709V55.7559H53.2289V49.9726H53.9659V50.6489C54.1267 50.4166 54.3488 50.2335 54.6075 50.12C54.8795 49.9959 55.1756 49.9337 55.4746 49.9379C55.8674 49.9266 56.2563 50.0193 56.6017 50.2067ZM56.1596 53.3975C56.3754 53.2715 56.5524 53.0885 56.6711 52.8686C56.7965 52.6291 56.8619 52.3629 56.8619 52.0926C56.8619 51.8223 56.7965 51.556 56.6711 51.3166C56.5547 51.095 56.3771 50.9114 56.1596 50.7877C55.9375 50.6628 55.6859 50.5999 55.4312 50.6056C55.1784 50.602 54.9294 50.668 54.7116 50.7963C54.4943 50.9166 54.3166 51.0973 54.2 51.3166C54.073 51.5539 54.0074 51.8191 54.0092 52.0883C54.0024 52.3607 54.0682 52.63 54.2 52.8686C54.3156 53.0879 54.4897 53.271 54.7029 53.3975C54.9264 53.5186 55.177 53.5812 55.4312 53.5796C55.6859 53.5852 55.9375 53.5224 56.1596 53.3975Z" fill="#BA0061"/>
<path id="Vector_14" d="M62.3157 49.9726L60.2694 54.6287C60.1382 54.9683 59.9199 55.2673 59.6364 55.4957C59.3819 55.6712 59.0785 55.7622 58.7694 55.7559C58.5659 55.7594 58.3634 55.7271 58.1711 55.6605C57.9886 55.6011 57.8224 55.5002 57.6855 55.3657L58.015 54.7934C58.1138 54.8928 58.2314 54.9716 58.3609 55.0252C58.4904 55.0788 58.6292 55.1061 58.7694 55.1056C58.9373 55.1087 59.1017 55.0569 59.2376 54.9582C59.3875 54.8154 59.5031 54.6405 59.5757 54.4466L59.7145 54.1518L57.8416 49.9292H58.6393L60.1393 53.3974L61.596 50.0072L62.3157 49.9726Z" fill="#BA0061"/>
<path id="Vector_15" d="M70.4747 54.2037V50.1372L68.4545 53.5274H68.0903L66.0701 50.1632V54.2037H65.3417V48.6199H65.992L68.2811 52.5303L70.5441 48.6199H71.1944V54.2037H70.4747Z" fill="#BA0061"/>
<path id="Vector_16" d="M76.7436 49.9727V54.2039H76.0239V53.571C75.8644 53.7878 75.6526 53.9608 75.4083 54.0739C75.1379 54.2027 74.8406 54.2651 74.5412 54.2559C74.2937 54.2809 74.0437 54.2501 73.8096 54.1657C73.5756 54.0813 73.3634 53.9455 73.1887 53.7684C73.0141 53.5912 72.8813 53.3771 72.8003 53.1419C72.7192 52.9067 72.6919 52.6563 72.7204 52.4091V49.9727H73.4921V52.3224C73.4666 52.6581 73.5722 52.9907 73.7869 53.2501C73.8981 53.3653 74.0338 53.4539 74.1839 53.5094C74.3339 53.5649 74.4946 53.586 74.6539 53.571C74.8317 53.581 75.0095 53.5529 75.1755 53.4886C75.3415 53.4243 75.4918 53.3253 75.6164 53.1981C75.8634 52.9133 75.9881 52.5425 75.9632 52.1663V49.9727H76.7436Z" fill="#BA0061"/>
<path id="Vector_17" d="M78.4256 54.1172C78.155 54.0446 77.8995 53.9242 77.6713 53.7617L77.9921 53.1547C78.2009 53.2937 78.4287 53.4018 78.6684 53.4756C78.9305 53.5513 79.202 53.5892 79.4748 53.5883C80.1511 53.5883 80.4805 53.3975 80.4805 53.016C80.4833 52.958 80.4721 52.9002 80.448 52.8475C80.4238 52.7947 80.3874 52.7484 80.3418 52.7125C80.2425 52.6335 80.1271 52.5773 80.0037 52.5478C79.8736 52.5478 79.6828 52.4784 79.4314 52.4351C79.1377 52.3995 78.8476 52.3386 78.5643 52.253C78.3509 52.1863 78.1592 52.0636 78.0094 51.8975C77.8431 51.7062 77.7589 51.4569 77.7753 51.2039C77.771 51.0229 77.8125 50.8438 77.8958 50.6831C77.9792 50.5225 78.1018 50.3854 78.2522 50.2848C78.6318 50.0349 79.0816 49.9133 79.5354 49.9379C79.8276 49.9369 80.1188 49.9719 80.4025 50.042C80.6465 50.0987 80.8804 50.1922 81.0962 50.3195L80.7667 50.9264C80.4013 50.6957 79.976 50.5781 79.5441 50.5882C79.288 50.5748 79.0331 50.6318 78.8071 50.753C78.7288 50.7929 78.6631 50.8538 78.6172 50.9287C78.5713 51.0037 78.547 51.0899 78.547 51.1778C78.5459 51.2389 78.5586 51.2995 78.5841 51.355C78.6097 51.4106 78.6473 51.4597 78.6944 51.4987C78.798 51.5831 78.9196 51.6424 79.0499 51.6721C79.2436 51.7275 79.4405 51.7709 79.6395 51.8021C79.9326 51.8456 80.2223 51.9093 80.5066 51.9929C80.7111 52.0591 80.8959 52.1753 81.0441 52.331C81.2002 52.5171 81.2779 52.7564 81.2609 52.9987C81.2659 53.1807 81.2239 53.3609 81.1388 53.522C81.0537 53.683 80.9285 53.8193 80.7753 53.9178C80.3747 54.1628 79.9091 54.2807 79.4401 54.2559C79.0972 54.2558 78.7559 54.2091 78.4256 54.1172Z" fill="#BA0061"/>
<path id="Vector_18" d="M82.2061 48.2817H82.9691V54.2038H82.2061V48.2817Z" fill="#BA0061"/>
<path id="Vector_19" d="M84.417 49.0622C84.3698 49.0178 84.3323 48.964 84.3069 48.9043C84.2815 48.8446 84.2688 48.7803 84.2696 48.7154C84.2692 48.6493 84.282 48.5838 84.3073 48.5227C84.3326 48.4616 84.3699 48.4063 84.417 48.3599C84.4651 48.3102 84.5232 48.2713 84.5875 48.2459C84.6518 48.2205 84.7208 48.2091 84.7899 48.2125C84.9276 48.2075 85.0617 48.2574 85.1627 48.3512C85.2104 48.3953 85.2482 48.4491 85.2736 48.5088C85.299 48.5686 85.3114 48.6331 85.3101 48.6981C85.3095 48.8339 85.2568 48.9643 85.1627 49.0622C85.0626 49.1584 84.9287 49.2113 84.7899 49.2096C84.7211 49.2109 84.6527 49.1986 84.5887 49.1733C84.5247 49.148 84.4663 49.1102 84.417 49.0622ZM84.417 50.016H85.18V54.2472H84.417V50.016Z" fill="#BA0061"/>
<path id="Vector_20" d="M93.2178 50.3976C93.5477 50.778 93.713 51.2739 93.6773 51.7762V54.204H92.9143V51.8629C92.9405 51.5285 92.8381 51.1967 92.6282 50.9351C92.5247 50.8274 92.3989 50.7436 92.2596 50.6897C92.1203 50.6358 91.9708 50.613 91.8218 50.623C91.6503 50.6151 91.479 50.6435 91.3191 50.7062C91.1593 50.769 91.0144 50.8647 90.894 50.9872C90.652 51.2778 90.531 51.6503 90.5559 52.0276V54.204H89.7842V51.8629C89.8086 51.5301 89.7098 51.1999 89.5067 50.9351C89.4013 50.8277 89.2739 50.7441 89.1332 50.6903C88.9926 50.6364 88.842 50.6135 88.6917 50.623C88.5202 50.6151 88.3489 50.6435 88.189 50.7062C88.0292 50.769 87.8843 50.8647 87.764 50.9872C87.5219 51.2778 87.4009 51.6503 87.4258 52.0276V54.204H86.6541V49.9727H87.3911V50.6056C87.5452 50.3892 87.7549 50.2185 87.9981 50.1114C88.2713 49.9922 88.567 49.933 88.8651 49.938C89.1658 49.9355 89.4628 50.0039 89.7322 50.1374C89.9823 50.2679 90.1876 50.4702 90.3218 50.7184C90.4867 50.4691 90.7179 50.2709 90.9894 50.1461C91.2901 50.0041 91.6194 49.9329 91.9519 49.938C92.1828 49.9263 92.4138 49.961 92.6312 50.0399C92.8486 50.1188 93.0481 50.2404 93.2178 50.3976Z" fill="#BA0061"/>
<path id="Vector_21" d="M98.1513 49.3135V51.2644H100.952V51.9494H98.1513V54.2037H97.3536V48.6199H101.29V49.3135H98.1513Z" fill="#BA0061"/>
<path id="Vector_22" d="M105.044 50.3716C105.206 50.5416 105.331 50.7436 105.41 50.9646C105.489 51.1856 105.521 51.4207 105.504 51.6548V54.204H104.784V53.6491C104.651 53.85 104.461 54.0069 104.238 54.1C103.963 54.212 103.668 54.2652 103.371 54.256C102.963 54.2777 102.561 54.1549 102.235 53.9092C102.103 53.8069 101.995 53.6755 101.922 53.5252C101.848 53.3748 101.81 53.2096 101.81 53.0421C101.809 52.8764 101.845 52.7124 101.916 52.5624C101.986 52.4123 102.089 52.28 102.218 52.1751C102.597 51.9179 103.053 51.7985 103.51 51.8369H104.724V51.6635C104.733 51.5246 104.712 51.3854 104.663 51.2552C104.613 51.1251 104.536 51.0071 104.437 50.9092C104.195 50.7083 103.884 50.6117 103.57 50.6404C103.322 50.6399 103.075 50.6839 102.842 50.7704C102.62 50.8385 102.413 50.9505 102.235 51.0999L101.914 50.519C102.147 50.3386 102.412 50.2034 102.695 50.1202C103.007 50.025 103.331 49.9782 103.657 49.9814C104.153 49.9232 104.652 50.0634 105.044 50.3716ZM104.281 53.467C104.492 53.3378 104.653 53.1427 104.741 52.9121V52.3225H103.562C102.911 52.3225 102.591 52.5393 102.591 52.9815C102.587 53.0775 102.607 53.1729 102.65 53.2592C102.692 53.3454 102.755 53.4198 102.833 53.4757C103.033 53.6151 103.275 53.6824 103.518 53.6664C103.786 53.6718 104.05 53.6028 104.281 53.467Z" fill="#BA0061"/>
<path id="Vector_23" d="M113.481 50.3974C113.647 50.5843 113.774 50.8026 113.854 51.0394C113.935 51.2761 113.967 51.5266 113.949 51.776V54.2038H113.186V51.8627C113.212 51.5283 113.11 51.1966 112.9 50.935C112.796 50.8282 112.67 50.745 112.531 50.6912C112.392 50.6373 112.243 50.614 112.094 50.6228C111.922 50.6139 111.75 50.6417 111.59 50.7045C111.43 50.7673 111.286 50.8637 111.166 50.987C110.917 51.2745 110.793 51.6485 110.819 52.0275V54.2038H110.056V51.8627C110.082 51.5283 109.98 51.1966 109.77 50.935C109.666 50.8282 109.54 50.745 109.401 50.6912C109.262 50.6373 109.112 50.614 108.964 50.6228C108.792 50.6139 108.62 50.6417 108.46 50.7045C108.3 50.7673 108.156 50.8637 108.036 50.987C107.791 51.2763 107.666 51.649 107.689 52.0275V54.2038H106.961V49.9726H107.698V50.6055C107.852 50.3891 108.061 50.2183 108.305 50.1113C108.577 49.9899 108.873 49.9306 109.172 49.9379C109.472 49.9344 109.77 50.0028 110.039 50.1373C110.293 50.2626 110.499 50.4663 110.628 50.7182C110.795 50.4708 111.026 50.2731 111.296 50.146C111.597 50.004 111.926 49.9328 112.258 49.9379C112.71 49.9259 113.149 50.0908 113.481 50.3974Z" fill="#BA0061"/>
<path id="Vector_24" d="M115.371 49.0621C115.324 49.0177 115.286 48.9639 115.261 48.9042C115.236 48.8445 115.223 48.7802 115.224 48.7153C115.223 48.6492 115.236 48.5837 115.261 48.5226C115.287 48.4615 115.324 48.4062 115.371 48.3598C115.42 48.3105 115.478 48.272 115.542 48.2466C115.606 48.2212 115.675 48.2095 115.744 48.2124C115.812 48.2094 115.88 48.2202 115.944 48.244C116.008 48.2679 116.067 48.3043 116.117 48.3511C116.164 48.3952 116.202 48.4489 116.228 48.5087C116.253 48.5685 116.266 48.633 116.264 48.6979C116.264 48.8338 116.211 48.9641 116.117 49.0621C116.067 49.1101 116.009 49.1479 115.945 49.1732C115.881 49.1985 115.813 49.2108 115.744 49.2095C115.605 49.2112 115.471 49.1583 115.371 49.0621ZM115.371 50.0159H116.134V54.2471H115.371V50.0159Z" fill="#BA0061"/>
<path id="Vector_25" d="M117.591 48.2817H118.354V54.2038H117.591V48.2817Z" fill="#BA0061"/>
<path id="Vector_26" d="M119.828 49.0622C119.779 49.0188 119.741 48.9652 119.715 48.9052C119.69 48.8453 119.678 48.7804 119.68 48.7153C119.678 48.6489 119.69 48.5828 119.715 48.5214C119.741 48.46 119.779 48.4049 119.828 48.3598C119.875 48.3092 119.933 48.2697 119.998 48.2442C120.062 48.2187 120.132 48.2079 120.201 48.2124C120.268 48.2097 120.334 48.2206 120.397 48.2444C120.46 48.2682 120.517 48.3046 120.565 48.3512C120.614 48.3942 120.653 48.4477 120.678 48.5077C120.704 48.5678 120.715 48.6328 120.712 48.698C120.714 48.7656 120.702 48.8327 120.676 48.8954C120.651 48.958 120.613 49.0148 120.565 49.0622C120.517 49.1103 120.461 49.1482 120.398 49.1736C120.335 49.199 120.268 49.2112 120.201 49.2096C120.132 49.2119 120.063 49.2 119.999 49.1746C119.935 49.1493 119.877 49.111 119.828 49.0622ZM119.828 50.0159H120.6V54.2472H119.828V50.0159Z" fill="#BA0061"/>
<path id="Vector_27" d="M125.845 52.3482H122.42C122.461 52.6901 122.636 53.0019 122.906 53.2153C123.24 53.4642 123.653 53.5846 124.068 53.5544C124.484 53.5241 124.874 53.3453 125.169 53.0505L125.594 53.5447C125.396 53.7673 125.15 53.9422 124.874 54.0563C124.529 54.1863 124.161 54.2442 123.793 54.2263C123.424 54.2084 123.063 54.1151 122.732 53.9523C122.397 53.7777 122.12 53.5096 121.935 53.1806C121.741 52.84 121.642 52.4538 121.649 52.0621C121.645 51.6745 121.74 51.2923 121.926 50.9522C122.101 50.6318 122.362 50.3673 122.68 50.1892C123.012 49.9984 123.39 49.9024 123.773 49.9118C124.153 49.9027 124.528 49.9987 124.857 50.1892C125.17 50.368 125.426 50.6328 125.594 50.9522C125.779 51.3017 125.871 51.6927 125.863 52.0881C125.863 52.1748 125.854 52.2528 125.845 52.3482ZM122.854 50.9175C122.604 51.1404 122.449 51.4508 122.42 51.7846H125.169C125.139 51.4512 124.984 51.1415 124.735 50.9175C124.613 50.8018 124.468 50.7116 124.311 50.652C124.153 50.5925 123.985 50.5649 123.816 50.5707C123.641 50.561 123.465 50.5867 123.3 50.6462C123.134 50.7058 122.983 50.7981 122.854 50.9175Z" fill="#BA0061"/>
<path id="Vector_28" d="M127.137 54.1172C126.869 54.0447 126.617 53.9243 126.392 53.7617L126.712 53.1548C126.92 53.2957 127.148 53.4039 127.389 53.4756C127.65 53.5524 127.922 53.5904 128.195 53.5883C128.863 53.5883 129.201 53.3976 129.201 53.0161C129.202 52.9584 129.19 52.9012 129.166 52.8487C129.142 52.7963 129.106 52.7498 129.062 52.7126C128.963 52.6336 128.847 52.5774 128.724 52.5478L128.143 52.4351C127.85 52.3975 127.56 52.3366 127.276 52.253C127.064 52.1842 126.872 52.0617 126.721 51.8975C126.555 51.7062 126.471 51.4569 126.487 51.2039C126.484 51.0223 126.527 50.8429 126.612 50.6823C126.697 50.5218 126.821 50.3851 126.972 50.2848C127.352 50.0338 127.802 49.9121 128.256 49.938C128.548 49.936 128.839 49.971 129.123 50.042C129.368 50.0955 129.602 50.1892 129.816 50.3195L129.496 50.9264C129.13 50.6958 128.705 50.5782 128.273 50.5883C128.014 50.5751 127.757 50.632 127.527 50.753C127.451 50.7949 127.388 50.8564 127.344 50.9311C127.299 51.0058 127.276 51.0911 127.276 51.1779C127.273 51.2384 127.284 51.2987 127.308 51.3543C127.332 51.4099 127.369 51.4593 127.415 51.4987C127.518 51.5831 127.64 51.6425 127.77 51.6721C127.967 51.7274 128.167 51.7708 128.368 51.8022C128.662 51.8451 128.951 51.9088 129.236 51.9929C129.44 52.0592 129.625 52.1754 129.773 52.3311C129.931 52.5162 130.012 52.7554 129.999 52.9987C130.002 53.1814 129.958 53.3619 129.871 53.5228C129.785 53.6838 129.659 53.8198 129.504 53.9178C129.104 54.1639 128.638 54.2819 128.169 54.256C127.82 54.2574 127.473 54.2107 127.137 54.1172Z" fill="#BA0061"/>
<path id="Vector_29" d="M10.7168 29.874V41.8221H8.87L2.28034 33.7238V41.8221H0.0780029V29.874H1.9075L8.49717 37.9637V29.874H10.7168Z" fill="#BA0061"/>
<path id="Vector_30" d="M15.3036 41.3453C14.5802 40.9649 13.9791 40.3878 13.5695 39.6805C13.1603 38.9415 12.9457 38.1106 12.9457 37.2658C12.9457 36.421 13.1603 35.5901 13.5695 34.851C13.9786 34.1477 14.5803 33.5761 15.3036 33.2036C16.0789 32.8105 16.9359 32.6057 17.8051 32.6057C18.6743 32.6057 19.5313 32.8105 20.3066 33.2036C21.0277 33.5793 21.6286 34.1501 22.0407 34.851C22.4499 35.5901 22.6645 36.421 22.6645 37.2658C22.6645 38.1106 22.4499 38.9415 22.0407 39.6805C21.6289 40.3861 21.0283 40.9626 20.3066 41.3453C19.5297 41.7331 18.6733 41.9349 17.8051 41.9349C16.9368 41.9349 16.0805 41.7331 15.3036 41.3453ZM19.743 39.325C20.2401 38.7525 20.5139 38.0197 20.5139 37.2614C20.5139 36.5032 20.2401 35.7704 19.743 35.1978C19.2233 34.6915 18.5263 34.4082 17.8008 34.4082C17.0752 34.4082 16.3783 34.6915 15.8585 35.1978C15.3713 35.7751 15.1041 36.5061 15.1041 37.2614C15.1041 38.0168 15.3713 38.7478 15.8585 39.325C16.3783 39.8314 17.0752 40.1147 17.8008 40.1147C18.5263 40.1147 19.2233 39.8314 19.743 39.325Z" fill="#BA0061"/>
<path id="Vector_31" d="M32.142 33.1777C32.8362 33.5596 33.4075 34.1309 33.7894 34.8251C34.1822 35.5788 34.3873 36.4161 34.3873 37.2659C34.3873 38.1158 34.1822 38.9531 33.7894 39.7067C33.4104 40.4053 32.8385 40.9801 32.142 41.3628C31.4116 41.7526 30.5939 41.9496 29.7662 41.935C29.1725 41.9456 28.5827 41.8365 28.0321 41.6142C27.5214 41.405 27.0713 41.0711 26.7228 40.6431V41.8223H24.7112V29.1199H26.8442V33.776C27.207 33.3969 27.6478 33.101 28.1361 32.9089C28.6605 32.6903 29.2241 32.5811 29.7922 32.5881C30.6127 32.5833 31.421 32.7862 32.142 33.1777ZM31.4656 39.3252C31.9528 38.7479 32.2201 38.0169 32.2201 37.2616C32.2201 36.5062 31.9528 35.7752 31.4656 35.198C31.2144 34.9389 30.9119 34.735 30.5775 34.5991C30.2432 34.4633 29.8842 34.3985 29.5234 34.4089C29.0405 34.4031 28.5647 34.5258 28.1448 34.7644C27.7395 35.0006 27.409 35.3462 27.191 35.7616C26.9515 36.2253 26.8265 36.7396 26.8265 37.2616C26.8265 37.7835 26.9515 38.2979 27.191 38.7616C27.4137 39.1793 27.7505 39.5251 28.1621 39.7587C28.582 39.9974 29.0578 40.1201 29.5408 40.1142C29.8986 40.1222 30.2543 40.0563 30.5855 39.9205C30.9167 39.7847 31.2164 39.5821 31.4656 39.3252Z" fill="#BA0061"/>
<path id="Vector_32" d="M36.4252 29.1199H38.5582V41.8223H36.4252V29.1199Z" fill="#BA0061"/>
<path id="Vector_33" d="M49.8907 37.9465H42.7374C42.8455 38.5802 43.1971 39.1466 43.7172 39.5245C44.2944 39.931 44.9885 40.138 45.6941 40.1141C46.1518 40.1281 46.6075 40.0476 47.0327 39.8775C47.4579 39.7075 47.8434 39.4515 48.1652 39.1257L49.3097 40.4349C48.895 40.9306 48.3609 41.3126 47.7577 41.5448C46.9891 41.8239 46.1729 41.9485 45.356 41.9113C44.5391 41.8741 43.7376 41.6758 42.9975 41.328C42.2741 40.9476 41.673 40.3705 41.2634 39.6632C40.8409 38.928 40.6251 38.0921 40.6391 37.2441C40.6255 36.404 40.8349 35.5752 41.2461 34.8424C41.636 34.1402 42.22 33.5652 42.9282 33.1863C43.6589 32.7867 44.4798 32.5808 45.3126 32.588C46.1442 32.5723 46.9658 32.7725 47.697 33.1689C48.3892 33.5545 48.9575 34.1288 49.3358 34.825C49.7394 35.5851 49.9424 36.4357 49.9254 37.2962C49.9254 37.4609 49.908 37.669 49.8907 37.9465ZM43.5785 34.9117C43.1035 35.3265 42.7954 35.8996 42.7114 36.5245H47.9138C47.8419 35.8938 47.5334 35.314 47.0506 34.902C46.5678 34.49 45.9467 34.2766 45.3126 34.3048C44.68 34.2894 44.0634 34.5052 43.5785 34.9117Z" fill="#BA0061"/>
<path id="Vector_34" d="M62.862 41.8221V34.6515L59.3417 40.5562H58.0844L54.6162 34.8076V41.8221H52.015V29.874H54.3041L58.7781 37.2961L63.1828 29.874H65.4458V41.8221H62.862Z" fill="#310048"/>
<path id="Vector_35" d="M75.0875 33.5159C75.488 33.9128 75.7972 34.3922 75.9934 34.9209C76.1896 35.4495 76.268 36.0146 76.2233 36.5767V41.779H73.7348V40.6779C73.4286 41.1255 73.0058 41.4808 72.5122 41.7055C72.0186 41.9301 71.4729 42.0155 70.9342 41.9524C70.3056 41.9705 69.6808 41.8491 69.1047 41.5969C68.6304 41.3861 68.227 41.0429 67.9429 40.6085C67.669 40.179 67.5273 39.6785 67.5354 39.1692C67.5212 38.781 67.6013 38.3953 67.769 38.0449C67.9366 37.6946 68.1867 37.3901 68.4978 37.1576C69.3694 36.6174 70.3879 36.3628 71.4111 36.4293H73.5267C73.5403 36.1804 73.5001 35.9315 73.4089 35.6996C73.3176 35.4677 73.1774 35.2582 72.9978 35.0853C72.5447 34.7391 71.9796 34.5724 71.4111 34.6171C70.9227 34.6185 70.4373 34.6945 69.9718 34.8425C69.5363 34.9778 69.1283 35.1891 68.7666 35.4668L67.8128 33.6113C68.3598 33.221 68.9699 32.9277 69.6163 32.7442C70.3198 32.5522 71.046 32.456 71.7753 32.4581C72.9729 32.383 74.155 32.7606 75.0875 33.5159ZM72.8158 39.8455C73.166 39.6339 73.4301 39.3053 73.5614 38.9177V37.9813H71.7406C70.6481 37.9813 70.1019 38.3368 70.1019 39.0564C70.0961 39.2134 70.1295 39.3693 70.1992 39.5101C70.2688 39.6509 70.3724 39.7721 70.5007 39.8628C70.8252 40.0806 71.2116 40.1871 71.6019 40.1663C72.0286 40.1755 72.4493 40.0643 72.8158 39.8455Z" fill="#310048"/>
<path id="Vector_36" d="M82.4662 32.8394C83.0617 32.6031 83.6985 32.4882 84.3391 32.5012V34.955H83.7408C83.4139 34.9369 83.0868 34.9843 82.7785 35.0944C82.4703 35.2046 82.1872 35.3754 81.946 35.5967C81.714 35.8575 81.5368 36.1623 81.4251 36.493C81.3134 36.8237 81.2694 37.1735 81.2957 37.5215V41.8568H78.6338V32.6313H81.1743V33.8452C81.503 33.3963 81.9504 33.048 82.4662 32.8394Z" fill="#310048"/>
<path id="Vector_37" d="M89.7581 32.8395C90.3509 32.604 90.9846 32.489 91.6223 32.5014V34.9552H91.024C90.6984 34.9362 90.3724 34.9832 90.0654 35.0935C89.7585 35.2038 89.477 35.375 89.2379 35.5968C89.0059 35.8576 88.8288 36.1624 88.717 36.4931C88.6053 36.8238 88.5613 37.1736 88.5876 37.5217V41.857H85.9257V32.6315H88.4662V33.8453C88.7932 33.3948 89.2412 33.0461 89.7581 32.8395Z" fill="#310048"/>
<path id="Vector_38" d="M93.3478 30.9318C93.2007 30.7981 93.0837 30.6346 93.0045 30.4523C92.9252 30.2699 92.8856 30.0728 92.8883 29.874C92.8839 29.675 92.9228 29.4774 93.0021 29.2948C93.0814 29.1121 93.1994 28.9489 93.3478 28.8162C93.6773 28.5253 94.105 28.3703 94.5444 28.3827C94.9814 28.3655 95.4088 28.5142 95.7409 28.7989C95.8885 28.9247 96.0063 29.0818 96.0858 29.2587C96.1653 29.4357 96.2044 29.6281 96.2004 29.822C96.2048 30.0274 96.1662 30.2315 96.0871 30.4212C96.0079 30.6108 95.89 30.7818 95.7409 30.9232C95.4114 31.2141 94.9837 31.3691 94.5444 31.3567C94.1061 31.3714 93.6786 31.2196 93.3478 30.9318ZM93.2091 32.666H95.871V41.8568H93.2091V32.666Z" fill="#310048"/>
<path id="Vector_39" d="M105.331 33.5157C105.732 33.9121 106.043 34.3913 106.24 34.9199C106.438 35.4485 106.518 36.0138 106.475 36.5764V41.7788H103.987V40.6776C103.68 41.1246 103.257 41.4794 102.763 41.704C102.27 41.9285 101.725 42.0144 101.186 41.9522C100.555 41.969 99.9274 41.8477 99.3479 41.5967C98.8655 41.3876 98.4533 41.0446 98.16 40.6083C97.8861 40.1788 97.7444 39.6783 97.7525 39.169C97.7383 38.7808 97.8184 38.3951 97.9861 38.0447C98.1537 37.6943 98.4038 37.3899 98.7149 37.1574C99.6068 36.6047 100.651 36.3496 101.698 36.429H103.813C103.827 36.1802 103.787 35.9313 103.695 35.6994C103.604 35.4675 103.464 35.2579 103.284 35.0851C102.83 34.7411 102.266 34.5746 101.698 34.6169C101.206 34.6183 100.718 34.6944 100.25 34.8423C99.8175 34.9793 99.4126 35.1906 99.053 35.4666L98.0906 33.6111C98.6376 33.2208 99.2477 32.9275 99.8941 32.744C100.598 32.5531 101.324 32.4569 102.053 32.4579C103.239 32.3916 104.407 32.7687 105.331 33.5157ZM103.059 39.8453C103.412 39.6352 103.68 39.3064 103.813 38.9175V37.9811H101.984C100.891 37.9811 100.345 38.3366 100.345 39.0562C100.341 39.2139 100.376 39.37 100.447 39.5107C100.518 39.6515 100.623 39.7724 100.752 39.8626C101.076 40.0816 101.463 40.1882 101.854 40.1661C102.278 40.1756 102.696 40.0643 103.059 39.8453Z" fill="#310048"/>
<path id="Vector_40" d="M118.458 32.6314V40.2875C118.511 40.9698 118.422 41.6557 118.197 42.3019C117.971 42.9481 117.615 43.5406 117.149 44.0419C116.071 44.9242 114.697 45.3615 113.308 45.2645C112.453 45.2707 111.602 45.1628 110.776 44.9436C110.061 44.7666 109.389 44.4482 108.799 44.0072L109.857 42.1257C110.292 42.4716 110.789 42.7306 111.322 42.8887C111.897 43.069 112.496 43.1625 113.099 43.1662C113.834 43.2273 114.563 43.0038 115.137 42.5419C115.372 42.2915 115.552 41.9948 115.665 41.6708C115.779 41.3468 115.823 41.0026 115.796 40.6604V40.2702C115.423 40.658 114.97 40.9603 114.468 41.1564C113.967 41.3525 113.429 41.4376 112.891 41.406C112.087 41.4148 111.292 41.2273 110.576 40.8598C109.867 40.4821 109.278 39.9128 108.877 39.2169C108.475 38.521 108.277 37.7263 108.305 36.9233C108.287 36.1062 108.5 35.3007 108.92 34.5996C109.316 33.9353 109.89 33.3948 110.576 33.0389C111.29 32.6647 112.086 32.474 112.891 32.484C113.466 32.4467 114.041 32.5459 114.57 32.7734C115.099 33.001 115.567 33.3504 115.935 33.7932V32.6314H118.458ZM115.154 38.5707C115.586 38.1383 115.829 37.552 115.829 36.9407C115.829 36.3294 115.586 35.7431 115.154 35.3106C114.666 34.9074 114.053 34.6869 113.42 34.6869C112.787 34.6869 112.174 34.9074 111.686 35.3106C111.469 35.523 111.297 35.7765 111.179 36.0565C111.061 36.3364 111 36.637 111 36.9407C111 37.2443 111.061 37.545 111.179 37.8249C111.297 38.1048 111.469 38.3584 111.686 38.5707C112.176 38.9693 112.789 39.1868 113.42 39.1868C114.052 39.1868 114.664 38.9693 115.154 38.5707Z" fill="#310048"/>
<path id="Vector_41" d="M129.877 37.9811H122.941C123.045 38.5243 123.356 39.0059 123.808 39.3251C124.32 39.6664 124.926 39.8391 125.542 39.8193C125.976 39.8264 126.407 39.7559 126.816 39.6112C127.2 39.4524 127.55 39.223 127.848 38.9349L129.261 40.4696C128.779 40.9814 128.188 41.3798 127.533 41.6362C126.878 41.8925 126.174 42.0005 125.472 41.9523C124.522 41.9708 123.58 41.7659 122.724 41.354C121.963 40.9803 121.325 40.3966 120.886 39.6719C120.462 38.9281 120.24 38.087 120.24 37.2311C120.24 36.3753 120.462 35.5341 120.886 34.7903C121.296 34.0795 121.897 33.4971 122.62 33.1082C123.385 32.7177 124.232 32.5142 125.091 32.5142C125.95 32.5142 126.797 32.7177 127.562 33.1082C128.291 33.4814 128.894 34.0602 129.296 34.773C129.724 35.5407 129.94 36.4087 129.92 37.2875C129.92 37.2875 129.912 37.5389 129.877 37.9811ZM123.652 35.0244C123.229 35.3781 122.959 35.8812 122.897 36.4291H127.423C127.354 35.886 127.085 35.3883 126.668 35.0337C126.251 34.6792 125.716 34.4934 125.169 34.5129C124.618 34.4959 124.08 34.6775 123.652 35.0244Z" fill="#310048"/>
</g>
<defs>
<linearGradient id="paint0_linear_498_5540" x1="114.01" y1="-2.95279" x2="12.5377" y2="41.2066" gradientUnits="userSpaceOnUse">
<stop offset="0.213542" stop-color="#BA0061"/>
<stop offset="0.37" stop-color="#310048"/>
<stop offset="0.52" stop-color="#310048"/>
<stop offset="0.760417" stop-color="#BA0061"/>
</linearGradient>
</defs>
</svg>
